<svg width="151" height="21" viewBox="0 0 151 21" fill="none" xmlns="http://www.w3.org/2000/svg">
<path d="M15.1562 14.7812C15.1562 16.1562 14.6667 17.3229 13.6875 18.2812C12.2708 19.6354 10.2396 20.3125 7.59375 20.3125C5.32292 20.3125 3.38542 19.7812 1.78125 18.7188C1.78125 19.0729 1.76042 19.3542 1.71875 19.5625C1.61458 19.8958 1.28125 20.0625 0.71875 20.0625V13.4375H1.9375C2.02083 14.5417 2.25 15.5208 2.625 16.375C3.52083 18.3958 5.07292 19.4062 7.28125 19.4062C7.86458 19.4062 8.39583 19.3229 8.875 19.1562C10.2083 18.6562 10.875 17.6562 10.875 16.1562C10.875 15.7188 10.7812 15.2917 10.5938 14.875C10.1562 14 9.04167 13.0938 7.25 12.1562C5.25 11.1354 4.125 10.5417 3.875 10.375C1.89583 9.14583 0.90625 7.66667 0.90625 5.9375C0.90625 4.77083 1.3125 3.76042 2.125 2.90625C3.39583 1.59375 5.29167 0.9375 7.8125 0.9375C9.72917 0.9375 11.5521 1.34375 13.2812 2.15625C13.2812 1.96875 13.2917 1.80208 13.3125 1.65625C13.4167 1.26042 13.7604 1.0625 14.3438 1.0625V6.71875H13.125C13.1042 5.59375 12.8333 4.625 12.3125 3.8125C11.4583 2.52083 10.1771 1.875 8.46875 1.875C8.03125 1.875 7.61458 1.9375 7.21875 2.0625C6.03125 2.45833 5.4375 3.27083 5.4375 4.5C5.4375 4.97917 5.54167 5.4375 5.75 5.875C6.1875 6.77083 7.28125 7.67708 9.03125 8.59375C10.9479 9.61458 12.0417 10.1979 12.3125 10.3438C14.2083 11.5729 15.1562 13.0521 15.1562 14.7812ZM26.4375 20H17.0625V19.1562H19.5625V2.09375H17.0625V1.25H26.4375V2.09375H23.9375V9.875H31.875V2.09375H29.375V1.25H38.75V2.09375H36.25V19.1562H37.9062C38.3438 19.1979 38.625 19.4792 38.75 20H29.375V19.1562H31.875V10.8125H23.9375V19.1562H25.5938C26.0312 19.1979 26.3125 19.4792 26.4375 20ZM50.4688 0.9375C52.8229 0.9375 54.875 1.57292 56.625 2.84375C59.0625 4.63542 60.2812 7.25 60.2812 10.6875C60.2812 13.5208 59.3125 15.8542 57.375 17.6875C55.4792 19.4375 53.1458 20.3125 50.375 20.3125C47.9375 20.3125 45.8125 19.6146 44 18.2188C41.6458 16.3854 40.4688 13.8333 40.4688 10.5625C40.4688 7.70833 41.4583 5.375 43.4375 3.5625C45.3542 1.8125 47.6979 0.9375 50.4688 0.9375ZM50.4688 19.4062C51.4271 19.4062 52.2292 19.1979 52.875 18.7812C54.5417 17.7188 55.375 14.9688 55.375 10.5312C55.375 8.65625 55.2188 7.08333 54.9062 5.8125C54.2396 3.16667 52.7292 1.84375 50.375 1.84375C49.6667 1.84375 49.0312 1.96875 48.4688 2.21875C46.4062 3.09375 45.375 5.91667 45.375 10.6875C45.375 13.1875 45.6354 15.125 46.1562 16.5C46.9062 18.4375 48.3438 19.4062 50.4688 19.4062ZM70.6562 2.09375H68.875V10.8125H70.5312C72.7604 10.7917 73.8958 9.34375 73.9375 6.46875C73.9167 3.59375 72.8229 2.13542 70.6562 2.09375ZM72 20H62V19.1562H64.5V2.09375H62V1.25H72.4375C73.8125 1.25 75 1.48958 76 1.96875C77.75 2.82292 78.625 4.22917 78.625 6.1875C78.625 6.97917 78.4896 7.69792 78.2188 8.34375C77.3021 10.6146 75.0417 11.75 71.4375 11.75H68.875V19.1562H71.1562C71.5938 19.1979 71.875 19.4792 72 20ZM84.125 17.9688C84.125 18.3438 84.0417 18.6979 83.875 19.0312C83.4583 19.7812 82.8021 20.1562 81.9062 20.1562C81.5521 20.1562 81.2188 20.0729 80.9062 19.9062C80.1146 19.5104 79.7188 18.8646 79.7188 17.9688C79.7188 17.6146 79.8021 17.2708 79.9688 16.9375C80.3854 16.1458 81.0312 15.75 81.9062 15.75C82.2604 15.75 82.6042 15.8333 82.9375 16C83.7292 16.4375 84.125 17.0938 84.125 17.9688ZM101.938 18.7812C99.9583 19.8021 97.8958 20.3125 95.75 20.3125C92.7292 20.3125 90.2917 19.3438 88.4375 17.4062C86.7083 15.5729 85.8438 13.3125 85.8438 10.625C85.8438 8.35417 86.5 6.34375 87.8125 4.59375C89.6667 2.15625 92.3438 0.9375 95.8438 0.9375C98.0312 0.9375 100.031 1.42708 101.844 2.40625C101.823 2.07292 101.833 1.80208 101.875 1.59375C101.979 1.26042 102.302 1.09375 102.844 1.09375L102.938 7.25H101.844C101.51 6.04167 101.125 5.05208 100.688 4.28125C99.75 2.67708 98.3021 1.875 96.3438 1.875C92.6354 1.89583 90.7708 4.76042 90.75 10.4688C90.75 12.2188 90.875 13.6875 91.125 14.875C91.7917 17.875 93.4479 19.375 96.0938 19.375C96.7604 19.375 97.3646 19.3021 97.9062 19.1562C99.8646 18.6146 101.229 16.8958 102 14H103.031V20.1562C102.802 20.1562 102.615 20.1354 102.469 20.0938C102.094 20.0104 101.917 19.5729 101.938 18.7812ZM114.75 0.9375C117.104 0.9375 119.156 1.57292 120.906 2.84375C123.344 4.63542 124.562 7.25 124.562 10.6875C124.562 13.5208 123.594 15.8542 121.656 17.6875C119.76 19.4375 117.427 20.3125 114.656 20.3125C112.219 20.3125 110.094 19.6146 108.281 18.2188C105.927 16.3854 104.75 13.8333 104.75 10.5625C104.75 7.70833 105.74 5.375 107.719 3.5625C109.635 1.8125 111.979 0.9375 114.75 0.9375ZM114.75 19.4062C115.708 19.4062 116.51 19.1979 117.156 18.7812C118.823 17.7188 119.656 14.9688 119.656 10.5312C119.656 8.65625 119.5 7.08333 119.188 5.8125C118.521 3.16667 117.01 1.84375 114.656 1.84375C113.948 1.84375 113.312 1.96875 112.75 2.21875C110.688 3.09375 109.656 5.91667 109.656 10.6875C109.656 13.1875 109.917 15.125 110.438 16.5C111.188 18.4375 112.625 19.4062 114.75 19.4062ZM150.438 1.25V2.09375H147.938V19.1562H149.594C150.031 19.1979 150.312 19.4792 150.438 20H141.219V19.1562H143.719V4.3125L137 20.3125H136.438L129.781 7.375V19.1562H131.438C131.875 19.1979 132.156 19.4792 132.281 20H125.969V19.1562H128.469V2.09375H125.969V1.25H131.562L138.125 14.6875L143.719 1.25H150.438Z" fill="black"/>
</svg>
